<svg xmlns="http://www.w3.org/2000/svg" xmlns:xlink="http://www.w3.org/1999/xlink" width="250" zoomAndPan="magnify" viewBox="0 0 187.5 44.999999" height="60" preserveAspectRatio="xMidYMid meet" version="1.0"><defs><g/><clipPath id="fbb4610253"><path d="M 5 0.0585938 L 182 0.0585938 L 182 44.9375 L 5 44.9375 Z M 5 0.0585938 " clip-rule="nonzero"/></clipPath><clipPath id="6a02d55644"><rect x="0" width="177" y="0" height="45"/></clipPath></defs><g clip-path="url(#fbb4610253)"><g transform="matrix(1, 0, 0, 1, 5, 0.000000000000004656)"><g clip-path="url(#6a02d55644)"><g fill="#193cb8" fill-opacity="1"><g transform="translate(1.027328, 34.977776)"><g><path d="M 25.3125 -24.984375 C 25.925781 -24.859375 26.390625 -24.644531 26.703125 -24.34375 C 27.015625 -24.039062 27.171875 -23.691406 27.171875 -23.296875 C 27.171875 -22.628906 26.984375 -22.144531 26.609375 -21.84375 C 26.242188 -21.539062 25.660156 -21.421875 24.859375 -21.484375 C 23.054688 -21.628906 21.644531 -21.722656 20.625 -21.765625 C 19.613281 -21.816406 18.285156 -21.851562 16.640625 -21.875 C 15.898438 -18.1875 15.21875 -14.476562 14.59375 -10.75 C 14.375 -9.382812 14.144531 -7.800781 13.90625 -6 C 13.664062 -4.207031 13.503906 -2.757812 13.421875 -1.65625 C 13.378906 -1.070312 13.132812 -0.625 12.6875 -0.3125 C 12.25 0 11.722656 0.15625 11.109375 0.15625 C 10.441406 0.15625 9.925781 -0.00390625 9.5625 -0.328125 C 9.207031 -0.648438 9.03125 -1.070312 9.03125 -1.59375 C 9.03125 -2.070312 9.101562 -2.867188 9.25 -3.984375 C 9.40625 -5.097656 9.582031 -6.269531 9.78125 -7.5 C 10 -8.71875 10.171875 -9.78125 10.296875 -10.6875 C 10.515625 -12.207031 10.765625 -13.71875 11.046875 -15.21875 C 11.328125 -16.726562 11.609375 -18.15625 11.890625 -19.5 C 11.953125 -19.800781 12.019531 -20.144531 12.09375 -20.53125 C 12.175781 -20.925781 12.269531 -21.363281 12.375 -21.84375 C 10.40625 -21.78125 8.859375 -21.617188 7.734375 -21.359375 C 6.609375 -21.097656 5.8125 -20.734375 5.34375 -20.265625 C 4.875 -19.796875 4.640625 -19.191406 4.640625 -18.453125 C 4.640625 -17.765625 4.835938 -17.109375 5.234375 -16.484375 C 5.316406 -16.347656 5.359375 -16.203125 5.359375 -16.046875 C 5.359375 -15.660156 5.128906 -15.300781 4.671875 -14.96875 C 4.222656 -14.632812 3.757812 -14.46875 3.28125 -14.46875 C 2.9375 -14.46875 2.65625 -14.570312 2.4375 -14.78125 C 2.03125 -15.113281 1.695312 -15.597656 1.4375 -16.234375 C 1.175781 -16.867188 1.046875 -17.585938 1.046875 -18.390625 C 1.046875 -20.085938 1.601562 -21.453125 2.71875 -22.484375 C 3.832031 -23.523438 5.523438 -24.285156 7.796875 -24.765625 C 10.078125 -25.242188 13.003906 -25.484375 16.578125 -25.484375 C 18.785156 -25.484375 20.546875 -25.441406 21.859375 -25.359375 C 23.171875 -25.285156 24.320312 -25.160156 25.3125 -24.984375 Z M 25.3125 -24.984375 "/></g></g></g><g fill="#193cb8" fill-opacity="1"><g transform="translate(21.100358, 34.977776)"><g><path d="M 5.390625 -16.015625 C 4.546875 -16.015625 3.910156 -16.207031 3.484375 -16.59375 C 3.066406 -16.988281 2.859375 -17.535156 2.859375 -18.234375 C 2.859375 -18.941406 3.132812 -19.53125 3.6875 -20 C 4.238281 -20.46875 4.925781 -20.703125 5.75 -20.703125 C 6.488281 -20.703125 7.085938 -20.519531 7.546875 -20.15625 C 8.015625 -19.800781 8.25 -19.289062 8.25 -18.625 C 8.25 -17.820312 7.988281 -17.1875 7.46875 -16.71875 C 6.945312 -16.25 6.253906 -16.015625 5.390625 -16.015625 Z M 5.140625 0.15625 C 3.835938 0.15625 2.890625 -0.304688 2.296875 -1.234375 C 1.710938 -2.160156 1.421875 -3.382812 1.421875 -4.90625 C 1.421875 -5.8125 1.535156 -6.96875 1.765625 -8.375 C 1.992188 -9.789062 2.285156 -11.113281 2.640625 -12.34375 C 2.828125 -12.976562 3.070312 -13.414062 3.375 -13.65625 C 3.675781 -13.90625 4.15625 -14.03125 4.8125 -14.03125 C 5.832031 -14.03125 6.34375 -13.6875 6.34375 -13 C 6.34375 -12.5 6.15625 -11.335938 5.78125 -9.515625 C 5.300781 -7.304688 5.0625 -5.8125 5.0625 -5.03125 C 5.0625 -4.425781 5.140625 -3.960938 5.296875 -3.640625 C 5.453125 -3.316406 5.722656 -3.15625 6.109375 -3.15625 C 6.472656 -3.15625 6.925781 -3.40625 7.46875 -3.90625 C 8.007812 -4.414062 8.726562 -5.210938 9.625 -6.296875 C 9.863281 -6.566406 10.132812 -6.703125 10.4375 -6.703125 C 10.695312 -6.703125 10.898438 -6.582031 11.046875 -6.34375 C 11.203125 -6.101562 11.28125 -5.773438 11.28125 -5.359375 C 11.28125 -4.554688 11.09375 -3.929688 10.71875 -3.484375 C 8.726562 -1.054688 6.867188 0.15625 5.140625 0.15625 Z M 5.140625 0.15625 "/></g></g></g><g fill="#193cb8" fill-opacity="1"><g transform="translate(28.503676, 34.977776)"><g><path d="M 18.53125 -6.703125 C 18.789062 -6.703125 18.992188 -6.582031 19.140625 -6.34375 C 19.296875 -6.101562 19.375 -5.773438 19.375 -5.359375 C 19.375 -4.554688 19.1875 -3.929688 18.8125 -3.484375 C 17.988281 -2.484375 17.082031 -1.625 16.09375 -0.90625 C 15.113281 -0.195312 14.144531 0.15625 13.1875 0.15625 C 11.65625 0.15625 10.488281 -0.738281 9.6875 -2.53125 C 8.84375 -1.46875 8.101562 -0.753906 7.46875 -0.390625 C 6.84375 -0.0234375 6.109375 0.15625 5.265625 0.15625 C 4.046875 0.15625 3.035156 -0.300781 2.234375 -1.21875 C 1.441406 -2.132812 1.046875 -3.320312 1.046875 -4.78125 C 1.046875 -6.382812 1.382812 -7.875 2.0625 -9.25 C 2.75 -10.625 3.691406 -11.75 4.890625 -12.625 C 6.085938 -13.5 7.425781 -14.015625 8.90625 -14.171875 C 9.289062 -18.066406 10.019531 -21.390625 11.09375 -24.140625 C 12.164062 -26.898438 13.570312 -28.28125 15.3125 -28.28125 C 16.175781 -28.28125 16.894531 -27.890625 17.46875 -27.109375 C 18.039062 -26.328125 18.328125 -25.144531 18.328125 -23.5625 C 18.328125 -21.3125 17.773438 -18.679688 16.671875 -15.671875 C 15.566406 -12.671875 14.09375 -9.582031 12.25 -6.40625 C 12.332031 -5.25 12.507812 -4.414062 12.78125 -3.90625 C 13.050781 -3.40625 13.394531 -3.15625 13.8125 -3.15625 C 14.351562 -3.15625 14.90625 -3.394531 15.46875 -3.875 C 16.03125 -4.363281 16.78125 -5.171875 17.71875 -6.296875 C 17.96875 -6.566406 18.238281 -6.703125 18.53125 -6.703125 Z M 14.984375 -25.34375 C 14.609375 -25.34375 14.226562 -24.664062 13.84375 -23.3125 C 13.457031 -21.957031 13.128906 -20.1875 12.859375 -18 C 12.585938 -15.8125 12.394531 -13.523438 12.28125 -11.140625 C 14.53125 -16.035156 15.65625 -19.96875 15.65625 -22.9375 C 15.65625 -23.695312 15.585938 -24.285156 15.453125 -24.703125 C 15.316406 -25.128906 15.160156 -25.34375 14.984375 -25.34375 Z M 6.3125 -2.890625 C 6.695312 -2.890625 7.078125 -3.046875 7.453125 -3.359375 C 7.835938 -3.671875 8.320312 -4.242188 8.90625 -5.078125 C 8.707031 -6.160156 8.609375 -7.378906 8.609375 -8.734375 C 8.609375 -9.210938 8.628906 -9.992188 8.671875 -11.078125 C 7.566406 -10.734375 6.644531 -9.992188 5.90625 -8.859375 C 5.175781 -7.722656 4.8125 -6.460938 4.8125 -5.078125 C 4.8125 -3.617188 5.3125 -2.890625 6.3125 -2.890625 Z M 6.3125 -2.890625 "/></g></g></g><g fill="#193cb8" fill-opacity="1"><g transform="translate(43.701478, 34.977776)"><g><path d="M 5.140625 0.15625 C 3.898438 0.15625 2.90625 -0.296875 2.15625 -1.203125 C 1.414062 -2.109375 1.046875 -3.289062 1.046875 -4.75 C 1.046875 -6.351562 1.414062 -7.875 2.15625 -9.3125 C 2.90625 -10.75 3.894531 -11.898438 5.125 -12.765625 C 6.363281 -13.640625 7.675781 -14.078125 9.0625 -14.078125 C 9.5 -14.078125 9.789062 -13.992188 9.9375 -13.828125 C 10.09375 -13.660156 10.222656 -13.351562 10.328125 -12.90625 C 10.742188 -12.988281 11.179688 -13.03125 11.640625 -13.03125 C 12.628906 -13.03125 13.125 -12.679688 13.125 -11.984375 C 13.125 -11.554688 12.972656 -10.550781 12.671875 -8.96875 C 12.210938 -6.65625 11.984375 -5.050781 11.984375 -4.15625 C 11.984375 -3.851562 12.054688 -3.609375 12.203125 -3.421875 C 12.347656 -3.242188 12.546875 -3.15625 12.796875 -3.15625 C 13.171875 -3.15625 13.628906 -3.398438 14.171875 -3.890625 C 14.710938 -4.390625 15.445312 -5.191406 16.375 -6.296875 C 16.613281 -6.566406 16.882812 -6.703125 17.1875 -6.703125 C 17.445312 -6.703125 17.648438 -6.582031 17.796875 -6.34375 C 17.953125 -6.101562 18.03125 -5.773438 18.03125 -5.359375 C 18.03125 -4.554688 17.835938 -3.929688 17.453125 -3.484375 C 16.628906 -2.460938 15.753906 -1.597656 14.828125 -0.890625 C 13.910156 -0.191406 13.019531 0.15625 12.15625 0.15625 C 11.5 0.15625 10.894531 -0.0664062 10.34375 -0.515625 C 9.789062 -0.972656 9.375 -1.59375 9.09375 -2.375 C 8.039062 -0.6875 6.722656 0.15625 5.140625 0.15625 Z M 6.234375 -2.890625 C 6.671875 -2.890625 7.085938 -3.148438 7.484375 -3.671875 C 7.890625 -4.191406 8.179688 -4.882812 8.359375 -5.75 L 9.484375 -11.28125 C 8.640625 -11.257812 7.859375 -10.941406 7.140625 -10.328125 C 6.429688 -9.722656 5.863281 -8.914062 5.4375 -7.90625 C 5.019531 -6.90625 4.8125 -5.84375 4.8125 -4.71875 C 4.8125 -4.101562 4.9375 -3.644531 5.1875 -3.34375 C 5.4375 -3.039062 5.785156 -2.890625 6.234375 -2.890625 Z M 6.234375 -2.890625 "/></g></g></g><g fill="#193cb8" fill-opacity="1"><g transform="translate(57.846026, 34.977776)"><g><path d="M 12.84375 -6.703125 C 13.101562 -6.703125 13.304688 -6.582031 13.453125 -6.34375 C 13.609375 -6.101562 13.6875 -5.773438 13.6875 -5.359375 C 13.6875 -4.554688 13.5 -3.929688 13.125 -3.484375 C 12.257812 -2.421875 11.316406 -1.546875 10.296875 -0.859375 C 9.285156 -0.179688 8.140625 0.15625 6.859375 0.15625 C 5.097656 0.15625 3.789062 -0.644531 2.9375 -2.25 C 2.082031 -3.863281 1.65625 -5.941406 1.65625 -8.484375 C 1.65625 -10.929688 1.96875 -13.71875 2.59375 -16.84375 C 3.226562 -19.976562 4.160156 -22.664062 5.390625 -24.90625 C 6.628906 -27.15625 8.101562 -28.28125 9.8125 -28.28125 C 10.769531 -28.28125 11.523438 -27.832031 12.078125 -26.9375 C 12.628906 -26.050781 12.90625 -24.773438 12.90625 -23.109375 C 12.90625 -20.722656 12.242188 -17.953125 10.921875 -14.796875 C 9.597656 -11.648438 7.800781 -8.535156 5.53125 -5.453125 C 5.675781 -4.628906 5.90625 -4.039062 6.21875 -3.6875 C 6.539062 -3.332031 6.96875 -3.15625 7.5 -3.15625 C 8.320312 -3.15625 9.039062 -3.390625 9.65625 -3.859375 C 10.28125 -4.335938 11.070312 -5.148438 12.03125 -6.296875 C 12.28125 -6.566406 12.550781 -6.703125 12.84375 -6.703125 Z M 9.15625 -25.3125 C 8.6875 -25.3125 8.160156 -24.476562 7.578125 -22.8125 C 6.992188 -21.144531 6.484375 -19.078125 6.046875 -16.609375 C 5.609375 -14.140625 5.367188 -11.773438 5.328125 -9.515625 C 6.753906 -11.859375 7.882812 -14.207031 8.71875 -16.5625 C 9.5625 -18.925781 9.984375 -21.078125 9.984375 -23.015625 C 9.984375 -24.546875 9.707031 -25.3125 9.15625 -25.3125 Z M 9.15625 -25.3125 "/></g></g></g><g fill="#193cb8" fill-opacity="1"><g transform="translate(67.65693, 34.977776)"><g/></g></g><g fill="#193cb8" fill-opacity="1"><g transform="translate(75.632045, 34.977776)"><g><path d="M 26.6875 -24.953125 C 27.25 -24.867188 27.632812 -24.695312 27.84375 -24.4375 C 28.0625 -24.175781 28.171875 -23.832031 28.171875 -23.40625 C 28.171875 -22.03125 27.425781 -21.390625 25.9375 -21.484375 L 24.890625 -21.578125 C 23.703125 -21.679688 22.519531 -21.757812 21.34375 -21.8125 C 20.175781 -21.875 18.953125 -21.90625 17.671875 -21.90625 L 16.3125 -21.90625 C 16.070312 -18.9375 15.820312 -16.226562 15.5625 -13.78125 L 20.734375 -13.875 C 21.472656 -13.875 21.96875 -13.742188 22.21875 -13.484375 C 22.46875 -13.222656 22.59375 -12.867188 22.59375 -12.421875 C 22.59375 -11.742188 22.390625 -11.207031 21.984375 -10.8125 C 21.585938 -10.425781 21.019531 -10.234375 20.28125 -10.234375 L 15.140625 -10.234375 L 14.953125 -8.9375 C 14.535156 -5.625 13.640625 -3.265625 12.265625 -1.859375 C 10.890625 -0.460938 9 0.234375 6.59375 0.234375 C 5.226562 0.234375 3.972656 -0.0546875 2.828125 -0.640625 C 1.679688 -1.234375 0.835938 -1.953125 0.296875 -2.796875 C 0.078125 -3.140625 -0.03125 -3.550781 -0.03125 -4.03125 C -0.03125 -4.507812 0.0820312 -4.929688 0.3125 -5.296875 C 0.539062 -5.660156 0.828125 -5.84375 1.171875 -5.84375 C 1.410156 -5.84375 1.644531 -5.757812 1.875 -5.59375 C 2.113281 -5.4375 2.410156 -5.128906 2.765625 -4.671875 C 3.734375 -3.398438 4.925781 -2.765625 6.34375 -2.765625 C 7.488281 -2.765625 8.445312 -3.226562 9.21875 -4.15625 C 9.988281 -5.09375 10.488281 -6.566406 10.71875 -8.578125 L 10.890625 -10.234375 L 9.453125 -10.234375 C 8.984375 -10.234375 8.582031 -10.363281 8.25 -10.625 C 7.925781 -10.882812 7.765625 -11.253906 7.765625 -11.734375 C 7.765625 -12.359375 7.925781 -12.832031 8.25 -13.15625 C 8.570312 -13.488281 9.039062 -13.65625 9.65625 -13.65625 C 10.21875 -13.65625 10.769531 -13.664062 11.3125 -13.6875 C 11.550781 -15.894531 11.8125 -18.578125 12.09375 -21.734375 C 9.925781 -21.523438 8.398438 -21.171875 7.515625 -20.671875 C 6.640625 -20.171875 6.203125 -19.429688 6.203125 -18.453125 C 6.203125 -17.765625 6.398438 -17.109375 6.796875 -16.484375 C 6.921875 -16.304688 6.984375 -16.128906 6.984375 -15.953125 C 6.984375 -15.585938 6.78125 -15.269531 6.375 -15 C 5.976562 -14.726562 5.53125 -14.59375 5.03125 -14.59375 C 4.488281 -14.59375 4.023438 -14.753906 3.640625 -15.078125 C 3.398438 -15.273438 3.171875 -15.6875 2.953125 -16.3125 C 2.734375 -16.9375 2.625 -17.628906 2.625 -18.390625 C 2.625 -20.878906 3.898438 -22.679688 6.453125 -23.796875 C 9.015625 -24.921875 12.753906 -25.484375 17.671875 -25.484375 C 21.078125 -25.484375 24.082031 -25.304688 26.6875 -24.953125 Z M 26.6875 -24.953125 "/></g></g></g><g fill="#193cb8" fill-opacity="1"><g transform="translate(96.758519, 34.977776)"><g><path d="M 16.796875 -9.234375 C 17.054688 -9.234375 17.253906 -9.101562 17.390625 -8.84375 C 17.535156 -8.582031 17.609375 -8.253906 17.609375 -7.859375 C 17.609375 -6.890625 17.316406 -6.316406 16.734375 -6.140625 C 15.523438 -5.710938 14.203125 -5.472656 12.765625 -5.421875 C 12.378906 -3.734375 11.625 -2.378906 10.5 -1.359375 C 9.375 -0.347656 8.101562 0.15625 6.6875 0.15625 C 5.476562 0.15625 4.445312 -0.132812 3.59375 -0.71875 C 2.738281 -1.300781 2.09375 -2.070312 1.65625 -3.03125 C 1.21875 -4 1 -5.046875 1 -6.171875 C 1 -7.691406 1.285156 -9.046875 1.859375 -10.234375 C 2.441406 -11.429688 3.242188 -12.363281 4.265625 -13.03125 C 5.296875 -13.707031 6.429688 -14.046875 7.671875 -14.046875 C 9.203125 -14.046875 10.429688 -13.519531 11.359375 -12.46875 C 12.296875 -11.414062 12.84375 -10.117188 13 -8.578125 C 13.945312 -8.640625 15.070312 -8.835938 16.375 -9.171875 C 16.53125 -9.210938 16.671875 -9.234375 16.796875 -9.234375 Z M 6.921875 -3.046875 C 7.566406 -3.046875 8.125 -3.304688 8.59375 -3.828125 C 9.0625 -4.347656 9.378906 -5.097656 9.546875 -6.078125 C 8.921875 -6.492188 8.441406 -7.039062 8.109375 -7.71875 C 7.773438 -8.40625 7.609375 -9.132812 7.609375 -9.90625 C 7.609375 -10.21875 7.640625 -10.535156 7.703125 -10.859375 L 7.546875 -10.859375 C 6.742188 -10.859375 6.078125 -10.472656 5.546875 -9.703125 C 5.015625 -8.929688 4.75 -7.84375 4.75 -6.4375 C 4.75 -5.332031 4.960938 -4.488281 5.390625 -3.90625 C 5.828125 -3.332031 6.335938 -3.046875 6.921875 -3.046875 Z M 6.921875 -3.046875 "/></g></g></g><g fill="#193cb8" fill-opacity="1"><g transform="translate(110.331271, 34.977776)"><g><path d="M 3.578125 0.15625 C 2.816406 0.15625 2.28125 -0.242188 1.96875 -1.046875 C 1.65625 -1.847656 1.5 -3.132812 1.5 -4.90625 C 1.5 -7.507812 1.875 -9.988281 2.625 -12.34375 C 2.800781 -12.925781 3.09375 -13.351562 3.5 -13.625 C 3.914062 -13.894531 4.492188 -14.03125 5.234375 -14.03125 C 5.640625 -14.03125 5.921875 -13.976562 6.078125 -13.875 C 6.234375 -13.769531 6.3125 -13.578125 6.3125 -13.296875 C 6.3125 -12.972656 6.164062 -12.253906 5.875 -11.140625 C 5.664062 -10.335938 5.5 -9.632812 5.375 -9.03125 C 5.257812 -8.425781 5.160156 -7.679688 5.078125 -6.796875 C 5.742188 -8.523438 6.488281 -9.929688 7.3125 -11.015625 C 8.132812 -12.097656 8.941406 -12.867188 9.734375 -13.328125 C 10.523438 -13.796875 11.253906 -14.03125 11.921875 -14.03125 C 13.222656 -14.03125 13.875 -13.375 13.875 -12.0625 C 13.875 -11.800781 13.785156 -11.171875 13.609375 -10.171875 C 13.441406 -9.367188 13.359375 -8.867188 13.359375 -8.671875 C 13.359375 -7.960938 13.609375 -7.609375 14.109375 -7.609375 C 14.671875 -7.609375 15.394531 -8.050781 16.28125 -8.9375 C 16.539062 -9.195312 16.8125 -9.328125 17.09375 -9.328125 C 17.351562 -9.328125 17.554688 -9.210938 17.703125 -8.984375 C 17.859375 -8.753906 17.9375 -8.445312 17.9375 -8.0625 C 17.9375 -7.320312 17.734375 -6.738281 17.328125 -6.3125 C 16.765625 -5.738281 16.109375 -5.242188 15.359375 -4.828125 C 14.609375 -4.421875 13.8125 -4.21875 12.96875 -4.21875 C 11.90625 -4.21875 11.097656 -4.488281 10.546875 -5.03125 C 9.992188 -5.570312 9.71875 -6.300781 9.71875 -7.21875 C 9.71875 -7.519531 9.75 -7.820312 9.8125 -8.125 C 9.851562 -8.53125 9.875 -8.800781 9.875 -8.9375 C 9.875 -9.257812 9.765625 -9.421875 9.546875 -9.421875 C 9.242188 -9.421875 8.84375 -9.082031 8.34375 -8.40625 C 7.851562 -7.738281 7.367188 -6.851562 6.890625 -5.75 C 6.410156 -4.644531 6.019531 -3.476562 5.71875 -2.25 C 5.5 -1.3125 5.242188 -0.675781 4.953125 -0.34375 C 4.660156 -0.0078125 4.203125 0.15625 3.578125 0.15625 Z M 3.578125 0.15625 "/></g></g></g><g fill="#193cb8" fill-opacity="1"><g transform="translate(124.024397, 34.977776)"><g><path d="M 7.1875 0.15625 C 5.226562 0.15625 3.703125 -0.398438 2.609375 -1.515625 C 1.515625 -2.628906 0.96875 -4.097656 0.96875 -5.921875 C 0.96875 -7.546875 1.285156 -8.96875 1.921875 -10.1875 C 2.566406 -11.414062 3.398438 -12.363281 4.421875 -13.03125 C 5.441406 -13.695312 6.515625 -14.03125 7.640625 -14.03125 C 8.742188 -14.03125 9.601562 -13.703125 10.21875 -13.046875 C 10.832031 -12.390625 11.140625 -11.550781 11.140625 -10.53125 C 11.140625 -9.6875 10.953125 -8.972656 10.578125 -8.390625 C 10.203125 -7.804688 9.71875 -7.515625 9.125 -7.515625 C 8.738281 -7.515625 8.429688 -7.601562 8.203125 -7.78125 C 7.972656 -7.96875 7.859375 -8.222656 7.859375 -8.546875 C 7.859375 -8.679688 7.875 -8.835938 7.90625 -9.015625 C 7.945312 -9.203125 7.976562 -9.335938 8 -9.421875 C 8.101562 -9.722656 8.15625 -10.003906 8.15625 -10.265625 C 8.15625 -10.523438 8.085938 -10.722656 7.953125 -10.859375 C 7.828125 -11.003906 7.644531 -11.078125 7.40625 -11.078125 C 6.9375 -11.078125 6.5 -10.867188 6.09375 -10.453125 C 5.695312 -10.046875 5.378906 -9.488281 5.140625 -8.78125 C 4.898438 -8.082031 4.78125 -7.3125 4.78125 -6.46875 C 4.78125 -4.144531 5.796875 -2.984375 7.828125 -2.984375 C 8.648438 -2.984375 9.535156 -3.257812 10.484375 -3.8125 C 11.441406 -4.363281 12.378906 -5.191406 13.296875 -6.296875 C 13.535156 -6.566406 13.804688 -6.703125 14.109375 -6.703125 C 14.367188 -6.703125 14.570312 -6.582031 14.71875 -6.34375 C 14.875 -6.101562 14.953125 -5.773438 14.953125 -5.359375 C 14.953125 -4.597656 14.765625 -3.972656 14.390625 -3.484375 C 13.441406 -2.328125 12.3125 -1.429688 11 -0.796875 C 9.6875 -0.160156 8.414062 0.15625 7.1875 0.15625 Z M 7.1875 0.15625 "/></g></g></g><g fill="#193cb8" fill-opacity="1"><g transform="translate(135.099277, 34.977776)"><g><path d="M 14.859375 -6.703125 C 15.117188 -6.703125 15.320312 -6.582031 15.46875 -6.34375 C 15.625 -6.101562 15.703125 -5.773438 15.703125 -5.359375 C 15.703125 -4.554688 15.515625 -3.929688 15.140625 -3.484375 C 14.398438 -2.585938 13.351562 -1.753906 12 -0.984375 C 10.644531 -0.222656 9.191406 0.15625 7.640625 0.15625 C 5.535156 0.15625 3.898438 -0.414062 2.734375 -1.5625 C 1.578125 -2.707031 1 -4.273438 1 -6.265625 C 1 -7.648438 1.285156 -8.9375 1.859375 -10.125 C 2.441406 -11.320312 3.25 -12.269531 4.28125 -12.96875 C 5.320312 -13.675781 6.492188 -14.03125 7.796875 -14.03125 C 8.960938 -14.03125 9.894531 -13.679688 10.59375 -12.984375 C 11.289062 -12.296875 11.640625 -11.359375 11.640625 -10.171875 C 11.640625 -8.785156 11.144531 -7.59375 10.15625 -6.59375 C 9.164062 -5.601562 7.484375 -4.820312 5.109375 -4.25 C 5.617188 -3.320312 6.570312 -2.859375 7.96875 -2.859375 C 8.875 -2.859375 9.90625 -3.171875 11.0625 -3.796875 C 12.21875 -4.429688 13.210938 -5.265625 14.046875 -6.296875 C 14.296875 -6.566406 14.566406 -6.703125 14.859375 -6.703125 Z M 7.28125 -11.078125 C 6.539062 -11.078125 5.914062 -10.644531 5.40625 -9.78125 C 4.894531 -8.914062 4.640625 -7.875 4.640625 -6.65625 L 4.640625 -6.59375 C 5.816406 -6.875 6.742188 -7.296875 7.421875 -7.859375 C 8.109375 -8.421875 8.453125 -9.070312 8.453125 -9.8125 C 8.453125 -10.1875 8.347656 -10.488281 8.140625 -10.71875 C 7.929688 -10.957031 7.644531 -11.078125 7.28125 -11.078125 Z M 7.28125 -11.078125 "/></g></g></g><g fill="#193cb8" fill-opacity="1"><g transform="translate(146.926526, 34.977776)"><g/></g></g><g fill="#193cb8" fill-opacity="1"><g transform="translate(154.901641, 34.977776)"><g><path d="M 17.578125 -10.375 C 18.035156 -10.375 18.382812 -10.234375 18.625 -9.953125 C 18.863281 -9.679688 18.984375 -9.34375 18.984375 -8.9375 C 18.984375 -8.4375 18.816406 -7.976562 18.484375 -7.5625 C 18.160156 -7.15625 17.71875 -6.953125 17.15625 -6.953125 L 12.21875 -6.953125 L 11.5625 -1.4375 C 11.476562 -0.914062 11.25 -0.515625 10.875 -0.234375 C 10.507812 0.046875 10.082031 0.1875 9.59375 0.1875 C 9.132812 0.1875 8.757812 0.046875 8.46875 -0.234375 C 8.175781 -0.515625 8.0625 -0.914062 8.125 -1.4375 L 8.78125 -6.953125 L 3.90625 -6.953125 C 3.445312 -6.953125 3.097656 -7.097656 2.859375 -7.390625 C 2.617188 -7.679688 2.5 -8.023438 2.5 -8.421875 C 2.5 -8.921875 2.660156 -9.367188 2.984375 -9.765625 C 3.316406 -10.171875 3.765625 -10.375 4.328125 -10.375 L 9.234375 -10.375 L 9.90625 -15.890625 C 9.957031 -16.390625 10.164062 -16.78125 10.53125 -17.0625 C 10.894531 -17.34375 11.304688 -17.484375 11.765625 -17.484375 C 12.222656 -17.484375 12.613281 -17.34375 12.9375 -17.0625 C 13.257812 -16.78125 13.390625 -16.390625 13.328125 -15.890625 L 12.671875 -10.375 Z M 17.578125 -10.375 "/></g></g></g></g></g></g></svg>